<?xml version="1.0" encoding="UTF-8" standalone="no"?>
<svg
   xmlns:dc="http://purl.org/dc/elements/1.1/"
   xmlns:cc="http://creativecommons.org/ns#"
   xmlns:rdf="http://www.w3.org/1999/02/22-rdf-syntax-ns#"
   xmlns:svg="http://www.w3.org/2000/svg"
   xmlns="http://www.w3.org/2000/svg"
   xmlns:sodipodi="http://sodipodi.sourceforge.net/DTD/sodipodi-0.dtd"
   xmlns:inkscape="http://www.inkscape.org/namespaces/inkscape"
   inkscape:export-ydpi="300"
   inkscape:export-xdpi="300"
   inkscape:export-filename="C:\Users\the-k\Desktop\krnl-ambigram-glow-torn.png"
   width="100mm"
   height="100mm"
   viewBox="0 0 100 99.999999"
   version="1.1"
   id="svg882"
   inkscape:version="1.0 (4035a4fb49, 2020-05-01)"
   sodipodi:docname="krnl-ambigram-glowing-torn.svg">
  <title
     id="title840">krnl.de ambigram</title>
  <defs
     id="defs876">
    <clipPath
       id="clipPath935"
       clipPathUnits="userSpaceOnUse">
      <path
         id="path933"
         d="M 0,141.732 H 141.732 V 0 H 0 Z" />
    </clipPath>
    <filter
       style="color-interpolation-filters:sRGB;"
       inkscape:label="Drop Shadow"
       id="filter1355"
       x="-0.020551637"
       width="1.0411033"
       y="-0.039345062"
       height="1.0786901">
      <feFlood
         flood-opacity="1"
         flood-color="rgb(0,255,255)"
         result="flood"
         id="feFlood1345" />
      <feComposite
         in="flood"
         in2="SourceGraphic"
         operator="in"
         result="composite1"
         id="feComposite1347" />
      <feGaussianBlur
         in="composite1"
         stdDeviation="0.75254489"
         result="blur"
         id="feGaussianBlur1349" />
      <feOffset
         dx="0"
         dy="0"
         result="offset"
         id="feOffset1351" />
      <feComposite
         in="SourceGraphic"
         in2="offset"
         operator="over"
         result="composite2"
         id="feComposite1353" />
    </filter>
    <filter
       style="color-interpolation-filters:sRGB;"
       inkscape:label="Drop Shadow"
       id="filter1367"
       x="-0.013153058"
       width="1.0263061"
       y="-0.025180803"
       height="1.0503616">
      <feFlood
         flood-opacity="1"
         flood-color="rgb(255,0,255)"
         result="flood"
         id="feFlood1357" />
      <feComposite
         in="flood"
         in2="SourceGraphic"
         operator="in"
         result="composite1"
         id="feComposite1359" />
      <feGaussianBlur
         in="composite1"
         stdDeviation="0.48162907"
         result="blur"
         id="feGaussianBlur1361" />
      <feOffset
         dx="0"
         dy="0"
         result="offset"
         id="feOffset1363" />
      <feComposite
         in="SourceGraphic"
         in2="offset"
         operator="over"
         result="composite2"
         id="feComposite1365" />
    </filter>
    <filter
       style="color-interpolation-filters:sRGB;"
       inkscape:label="Drop Shadow"
       id="filter1379"
       x="-0.0091340679"
       width="1.0182681"
       y="-0.017486669"
       height="1.0349733">
      <feFlood
         flood-opacity="1"
         flood-color="rgb(255,255,0)"
         result="flood"
         id="feFlood1369" />
      <feComposite
         in="flood"
         in2="SourceGraphic"
         operator="in"
         result="composite1"
         id="feComposite1371" />
      <feGaussianBlur
         in="composite1"
         stdDeviation="0.33446462"
         result="blur"
         id="feGaussianBlur1373" />
      <feOffset
         dx="0"
         dy="0"
         result="offset"
         id="feOffset1375" />
      <feComposite
         in="SourceGraphic"
         in2="offset"
         operator="over"
         result="composite2"
         id="feComposite1377" />
    </filter>
  </defs>
  <sodipodi:namedview
     id="base"
     pagecolor="#ffffff"
     bordercolor="#666666"
     borderopacity="1.0"
     inkscape:pageopacity="0.0"
     inkscape:pageshadow="2"
     inkscape:zoom="2.6177366"
     inkscape:cx="178.59973"
     inkscape:cy="189.74437"
     inkscape:document-units="mm"
     inkscape:current-layer="layer6"
     inkscape:document-rotation="0"
     showgrid="false"
     inkscape:pagecheckerboard="true"
     fit-margin-top="0"
     fit-margin-left="0"
     fit-margin-right="0"
     fit-margin-bottom="0"
     lock-margins="true"
     inkscape:window-width="1920"
     inkscape:window-height="1010"
     inkscape:window-x="-7"
     inkscape:window-y="-7"
     inkscape:window-maximized="1" />
  <metadata
     id="metadata879">
    <rdf:RDF>
      <cc:Work
         rdf:about="">
        <dc:format>image/svg+xml</dc:format>
        <dc:type
           rdf:resource="http://purl.org/dc/dcmitype/StillImage" />
        <dc:title>krnl.de ambigram</dc:title>
        <dc:creator>
          <cc:Agent>
            <dc:title>Kai Dorschner</dc:title>
          </cc:Agent>
        </dc:creator>
        <dc:rights>
          <cc:Agent>
            <dc:title>copyright</dc:title>
          </cc:Agent>
        </dc:rights>
        <dc:publisher>
          <cc:Agent>
            <dc:title>krnl.de</dc:title>
          </cc:Agent>
        </dc:publisher>
        <dc:source>https://krnl.de</dc:source>
        <dc:subject>
          <rdf:Bag>
            <rdf:li>krnl</rdf:li>
            <rdf:li>krnl.de</rdf:li>
            <rdf:li>ambigram</rdf:li>
          </rdf:Bag>
        </dc:subject>
      </cc:Work>
    </rdf:RDF>
  </metadata>
  <g
     sodipodi:insensitive="true"
     inkscape:groupmode="layer"
     id="layer6"
     inkscape:label="circle"
     transform="translate(-72.537952,-119.40779)">
    <circle
       r="50"
       style="fill:#000000;stroke-width:0.827214"
       id="path1029"
       cx="122.53795"
       cy="169.40779" />
  </g>
  <g
     inkscape:groupmode="layer"
     id="layer7"
     inkscape:label="logo"
     transform="translate(-6.2146803,4.2700309)"
     sodipodi:insensitive="true">
    <g
       inkscape:groupmode="layer"
       id="layer4"
       inkscape:label="teal"
       style="display:inline;mix-blend-mode:lighten">
      <path
         id="path939-2"
         style="mix-blend-mode:lighten;fill:#00ffff;fill-opacity:1;fill-rule:nonzero;stroke:none;stroke-width:0.706198;filter:url(#filter1355)"
         d="m 17.440439,33.506569 c 0.162428,-6.87e-4 0.32132,-0.0015 0.475271,0.006 1.23161,0.06006 2.26548,0.338969 3.100209,0.819889 0.834018,0.482338 1.490784,1.157475 1.979472,2.031031 0.490101,0.874978 0.889809,1.902514 1.206185,3.078325 l 2.833266,10.579566 0.209743,0.587575 c 0.435722,-0.836142 0.889103,-1.703353 1.351661,-2.607999 0.463266,-0.903243 0.899698,-1.802222 1.32412,-2.681443 0.424427,-0.879222 0.819896,-1.704754 1.193475,-2.494994 0.372871,-0.789541 0.697723,-1.483734 0.962547,-2.064222 l 7.427086,-1.991496 c -1.025399,2.105179 -2.039501,4.126321 -3.038064,6.058482 -0.997154,1.932883 -2.111533,3.951904 -3.34879,6.05356 1.042346,0.531043 2.155313,1.198411 3.332549,2.00843 1.176525,0.809999 2.338928,1.663097 3.479438,2.557132 0.25988,0.204105 0.51058,0.410313 0.764103,0.616521 0.161728,0.09048 0.288839,0.170156 0.350276,0.226687 0.753515,0.686427 2.300798,0.995027 3.75627,0.605212 0.44773,-0.12011 0.92159,-0.269766 1.414516,-0.447027 0.492931,-0.176562 0.92371,-0.343914 1.301527,-0.503519 l -4.509081,-16.83652 h 0.0051 v -0.01001 c 1.014813,-0.692793 2.240063,-1.425821 3.672236,-2.184993 1.432172,-0.758453 3.091033,-1.386263 4.966697,-1.889785 0.336151,-0.08889 0.740799,-0.174359 1.228078,-0.259174 0.487984,-0.08607 0.981615,-0.157545 1.475959,-0.215399 0.495043,-0.05725 0.992204,-0.100294 1.49431,-0.129917 0.502108,-0.02963 0.939248,-0.02181 1.312825,0.02823 l 0.333326,5.448327 c -0.596734,0.01001 -1.290226,0.03603 -2.087524,0.08407 -0.797298,0.04864 -1.639084,0.192775 -2.506295,0.425146 -0.391945,0.1053 -0.842498,0.269766 -1.369318,0.486565 -0.526825,0.216096 -0.924417,0.401125 -1.182181,0.56001 l 4.52603,16.876044 h -0.01114 l 0.0452,0.163948 c -0.981615,0.589678 -2.282433,1.23939 -3.892566,1.951939 -1.609427,0.71185 -3.333966,1.314941 -5.182087,1.810693 -1.874956,0.502817 -3.500627,0.686426 -4.877008,0.53671 -1.187826,-0.129318 -2.223819,-0.463265 -3.105859,-0.995029 -0.01202,-0.008 -0.02048,-0.01602 -0.03389,-0.02322 -0.370899,-0.194179 -0.854647,-0.522598 -1.4648,-1.069197 -0.810012,-0.727383 -1.648974,-1.445576 -2.528898,-2.154603 -0.879925,-0.709727 -1.778914,-1.377096 -2.71039,-1.997842 -0.931472,-0.620045 -1.826223,-1.12004 -2.675782,-1.492901 L 31.781964,67.531723 25.518697,69.211774 18.821133,44.211606 18.28866,42.373371 C 18.138897,41.81345 17.961644,41.327588 17.756845,40.902458 17.552755,40.476609 17.290754,40.139763 16.970847,39.8954 16.650236,39.650356 16.237813,39.490052 15.73712,39.414483 c -0.499989,-0.07687 -1.135567,-0.03963 -1.906029,0.107302 l -0.497864,-5.403127 c 1.598826,-0.401826 2.965322,-0.605912 4.107242,-0.610856 m 71.588764,-10.200334 6.697578,25.000846 0.53248,1.838237 c 0.14974,0.559308 0.32698,1.045172 0.53249,1.471018 0.20408,0.425129 0.46538,0.762695 0.78599,1.006338 0.3199,0.245043 0.73303,0.405351 1.23373,0.480919 0.499289,0.07687 1.134849,0.04023 1.906029,-0.106706 l 0.49715,5.402425 c -1.82622,0.45904 -3.350879,0.665247 -4.581809,0.604512 -1.2316,-0.05925 -2.265478,-0.338268 -3.100197,-0.819188 -0.834021,-0.481639 -1.490778,-1.157473 -1.980183,-2.031031 -0.490104,-0.874997 -0.889809,-1.902514 -1.205481,-3.078327 l -2.833976,-10.579583 -0.20903,-0.587554 c -0.435715,0.836841 -0.889809,1.704071 -1.352375,2.607994 -0.463254,0.903944 -0.898993,1.802224 -1.324121,2.681445 -0.424427,0.879222 -0.819886,1.705475 -1.193468,2.494995 -0.373575,0.790239 -0.697732,1.483731 -0.961853,2.064922 l -7.427807,1.991496 c 1.026092,-2.1059 2.040195,-4.127044 3.037347,-6.059204 0.997868,-1.932862 2.112964,-3.951883 3.349533,-6.053538 -1.042373,-0.531059 -2.154646,-1.198408 -3.332574,-2.008427 -1.176538,-0.809997 -2.338232,-1.663095 -3.47945,-2.55715 -0.259158,-0.204086 -0.509867,-0.410994 -0.7634,-0.6165 -0.162348,-0.09048 -0.288842,-0.170956 -0.350277,-0.225988 -0.754206,-0.687127 -2.301497,-0.995748 -3.756961,-0.605913 -0.447729,0.120111 -0.921601,0.269769 -1.414529,0.447028 -0.492205,0.176561 -0.923704,0.343915 -1.300825,0.503519 l 4.509085,16.836489 h -0.006 v 0.01201 c -1.01411,0.691371 -2.240061,1.424399 -3.672225,2.184272 -1.431469,0.758472 -3.091037,1.386283 -4.966708,1.889102 -0.336144,0.08968 -0.740792,0.174358 -1.227375,0.259876 -0.487264,0.08607 -0.982314,0.158145 -1.476665,0.215377 -0.495032,0.05725 -0.992203,0.100294 -1.49431,0.129918 -0.502106,0.03043 -0.938536,0.02181 -1.312823,-0.02762 L 57.053522,52.62453 c 0.596029,-0.01001 1.289516,-0.03603 2.087521,-0.08407 0.796597,-0.04865 1.638387,-0.192175 2.505596,-0.424426 0.392637,-0.105301 0.842508,-0.270467 1.369326,-0.486565 0.526822,-0.216096 0.925125,-0.401826 1.182878,-0.56073 L 59.672116,34.193356 h 0.01201 l -0.0459,-0.16455 c 0.982316,-0.588978 2.283139,-1.239365 3.892567,-1.951938 1.609425,-0.711849 3.333976,-1.314938 5.1828,-1.810691 1.874968,-0.502096 3.499926,-0.686425 4.876297,-0.536709 1.187827,0.129318 2.223831,0.463262 3.105875,0.995749 0.01202,0.006 0.02124,0.01602 0.03385,0.02262 0.37146,0.194978 0.855198,0.523277 1.465355,1.069175 0.81002,0.727384 1.648262,1.445597 2.528181,2.155323 0.880668,0.709727 1.77894,1.376374 2.710428,1.997121 0.931474,0.620045 1.826226,1.120741 2.675779,1.493621 L 82.765476,24.988065 Z"
         sodipodi:nodetypes="ccccccccscccccccccccccccccccsccccccccccccccccccccccccccccccccccccccccccccccccccccccccccccccscccccsccccccccccccccc" />
    </g>
    <g
       inkscape:groupmode="layer"
       id="layer5"
       inkscape:label="magenta"
       style="display:inline;mix-blend-mode:lighten">
      <path
         id="path939-6"
         style="mix-blend-mode:lighten;fill:#ff00ff;fill-opacity:1;fill-rule:nonzero;stroke:none;stroke-width:0.706198;filter:url(#filter1367)"
         d="m 15.321856,33.506571 c 0.162428,-6.88e-4 0.32132,-0.0015 0.475271,0.006 1.231611,0.06006 2.265485,0.338968 3.100211,0.819887 0.834019,0.482339 1.490785,1.157473 1.979474,2.031032 0.490103,0.874977 0.889809,1.902514 1.206186,3.078327 l 2.833268,10.579565 0.209743,0.587575 c 0.435722,-0.836141 0.889101,-1.703352 1.351661,-2.607996 0.463266,-0.903245 0.899696,-1.802225 1.324121,-2.681446 0.424428,-0.879221 0.819896,-1.704754 1.193476,-2.494996 0.372872,-0.789541 0.697724,-1.483735 0.962547,-2.064222 l 7.42709,-1.991495 c -1.025402,2.105176 -2.039505,4.126321 -3.038065,6.058486 -0.997155,1.932881 -2.111534,3.951902 -3.348792,6.053557 1.042348,0.531045 2.155316,1.198412 3.332548,2.008432 1.176526,0.809998 2.338929,1.663095 3.479441,2.55713 0.259877,0.204105 0.510578,0.410314 0.764104,0.616523 0.161727,0.09048 0.288837,0.170155 0.350274,0.226686 0.753513,0.686426 2.300794,0.995028 3.756269,0.605212 0.44773,-0.12011 0.921588,-0.269766 1.414516,-0.447028 0.492927,-0.176561 0.923706,-0.343913 1.301522,-0.503518 L 40.887645,39.107797 h 0.0051 v -0.01001 c 1.01481,-0.692791 2.240062,-1.425819 3.672234,-2.184991 1.432172,-0.758453 3.091029,-1.386265 4.966693,-1.889784 0.33615,-0.08889 0.740797,-0.174359 1.228078,-0.259176 0.487985,-0.08607 0.981612,-0.157543 1.475956,-0.215399 0.495044,-0.05725 0.992204,-0.100293 1.494311,-0.129918 0.502108,-0.02963 0.939246,-0.02181 1.312824,0.02823 l 0.333325,5.448326 c -0.596735,0.01001 -1.290224,0.03603 -2.087523,0.08407 -0.797297,0.04865 -1.639084,0.192775 -2.506294,0.425146 -0.391945,0.1053 -0.842494,0.269767 -1.369318,0.486565 -0.526825,0.216096 -0.924414,0.401125 -1.182177,0.56001 l 4.526026,16.876045 h -0.01114 l 0.0452,0.16395 c -0.981617,0.589677 -2.282431,1.239389 -3.892566,1.951939 -1.609424,0.711848 -3.333961,1.314941 -5.182082,1.810693 -1.874956,0.502815 -3.500624,0.686425 -4.877004,0.536708 -1.187826,-0.129316 -2.223822,-0.463264 -3.105862,-0.995028 -0.01202,-0.008 -0.02048,-0.01602 -0.03389,-0.02322 -0.370869,-0.194173 -0.854615,-0.522593 -1.464771,-1.06919 -0.810009,-0.727384 -1.648973,-1.445579 -2.528896,-2.154606 -0.879921,-0.709727 -1.778913,-1.377095 -2.710388,-1.997841 -0.931475,-0.620046 -1.82623,-1.120041 -2.675786,-1.492901 l 3.343696,12.474349 -6.263274,1.680054 -6.697564,-25.000172 -0.532475,-1.838236 c -0.149716,-0.560011 -0.32697,-1.045873 -0.531769,-1.471 -0.204089,-0.42585 -0.46609,-0.762696 -0.785998,-1.007059 -0.320613,-0.245044 -0.733035,-0.405352 -1.233729,-0.480919 -0.499988,-0.07687 -1.135566,-0.03963 -1.906031,0.107303 l -0.49787,-5.403127 c 1.598835,-0.401826 2.965328,-0.605912 4.107252,-0.610857 m 71.588741,-10.200338 6.697578,25.00085 0.532483,1.838235 c 0.149735,0.559311 0.326977,1.045173 0.532486,1.47102 0.20409,0.425129 0.46538,0.762695 0.78599,1.006338 0.3199,0.245044 0.73303,0.40535 1.23373,0.48092 0.49929,0.07687 1.13485,0.04023 1.90603,-0.106707 l 0.497159,5.402425 c -1.826229,0.459039 -3.350889,0.665247 -4.581814,0.604512 -1.23165,-0.0592 -2.265529,-0.338212 -3.100251,-0.819131 C 90.580048,57.704236 89.923292,57.0284 89.433884,56.154844 88.943779,55.279846 88.544075,54.252329 88.228409,53.076517 L 85.39443,42.496938 85.185397,41.909383 c -0.435716,0.836843 -0.889809,1.704074 -1.352368,2.607997 -0.463264,0.903944 -0.898999,1.802224 -1.324127,2.681445 -0.424429,0.879221 -0.819885,1.705474 -1.193468,2.494994 -0.373578,0.79024 -0.697734,1.483733 -0.961852,2.064923 l -7.427806,1.991496 c 1.026093,-2.105901 2.040201,-4.127043 3.037344,-6.059205 0.99787,-1.932862 2.112986,-3.951882 3.349531,-6.053538 -1.042368,-0.531064 -2.154643,-1.198414 -3.332571,-2.008432 -1.176535,-0.809997 -2.338209,-1.663095 -3.479428,-2.55715 -0.259156,-0.204085 -0.509884,-0.410994 -0.763412,-0.616501 -0.162348,-0.09048 -0.288845,-0.170957 -0.350285,-0.225987 -0.754181,-0.687127 -2.30147,-0.995748 -3.756936,-0.605913 -0.447726,0.120111 -0.921598,0.269766 -1.414526,0.447028 -0.492209,0.176561 -0.923722,0.343914 -1.300844,0.503519 l 4.509086,16.836488 h -0.006 v 0.01202 c -1.014104,0.691372 -2.24004,1.4244 -3.672205,2.184272 -1.431481,0.758472 -3.091034,1.386283 -4.966701,1.889102 -0.336146,0.08969 -0.740795,0.174359 -1.227377,0.259877 -0.487264,0.08607 -0.982336,0.158144 -1.476663,0.215377 -0.495051,0.05725 -0.992204,0.100293 -1.494321,0.129918 -0.502105,0.03043 -0.938534,0.02181 -1.312821,-0.02762 l -0.332731,-5.448949 c 0.596033,-0.01001 1.289518,-0.03603 2.087528,-0.08407 0.796585,-0.04865 1.638369,-0.192176 2.50558,-0.424427 0.392636,-0.1053 0.842506,-0.270467 1.369326,-0.486565 0.526818,-0.216096 0.925122,-0.401826 1.182877,-0.56073 L 57.553526,34.193356 h 0.01201 l -0.04584,-0.16455 c 0.982314,-0.588978 2.283119,-1.239371 3.892543,-1.951939 1.609426,-0.71185 3.333991,-1.314939 5.182818,-1.810692 1.874944,-0.502097 3.499922,-0.686425 4.876298,-0.536709 1.187818,0.129318 2.223819,0.463263 3.105846,0.995747 0.01201,0.006 0.02124,0.01602 0.03385,0.02262 0.371454,0.194978 0.855196,0.523277 1.465353,1.069176 0.810018,0.727382 1.648255,1.445597 2.528179,2.155324 0.880661,0.709725 1.778942,1.376373 2.71043,1.997119 0.931466,0.620046 1.826221,1.120742 2.675774,1.493622 l -3.343862,-12.47501 z"
         sodipodi:nodetypes="ccccccccscccccccccccccccccccsccccccccccccccccccccccccccccccccccccccccccccccccccccccccccccccscccccsccccccccccccccc" />
    </g>
    <g
       inkscape:groupmode="layer"
       id="layer8"
       inkscape:label="yellow"
       transform="translate(6.2146803,-4.2700309)"
       style="mix-blend-mode:lighten">
      <path
         sodipodi:nodetypes="ccccccccscccccccccccccccccccsccccccccccccccccccccccccccccccccccccccccccccccccccccccccccccccscccccsccccccccccccccc"
         d="m 10.166475,36.717303 c 0.162428,-6.89e-4 0.321321,-0.0015 0.47527,0.006 1.231614,0.06006 2.265488,0.338969 3.100214,0.819887 0.834017,0.482341 1.490784,1.157473 1.979473,2.031032 0.490102,0.874979 0.88981,1.902515 1.206185,3.078327 l 2.833268,10.579567 0.209742,0.587575 c 0.435722,-0.836141 0.889102,-1.703352 1.351662,-2.607997 0.463265,-0.903242 0.899697,-1.802225 1.32412,-2.681445 0.424427,-0.879221 0.819897,-1.704755 1.193476,-2.495 0.372872,-0.789535 0.697725,-1.483729 0.962549,-2.064216 l 7.427087,-1.991496 c -1.025401,2.105177 -2.039501,4.126322 -3.038065,6.058486 -0.997154,1.932881 -2.111533,3.951902 -3.348791,6.053557 1.042348,0.531044 2.155315,1.19841 3.332548,2.008432 1.176527,0.809997 2.33893,1.663095 3.47944,2.557132 0.259881,0.204103 0.510579,0.410311 0.764105,0.616522 0.161727,0.09048 0.288837,0.170154 0.350275,0.226684 0.753513,0.686426 2.300793,0.995028 3.756268,0.605212 0.44773,-0.120108 0.92159,-0.269766 1.414515,-0.447028 0.492928,-0.17656 0.923709,-0.343913 1.301524,-0.503519 L 35.732265,42.318529 h 0.0051 v -0.01001 c 1.014809,-0.692791 2.240059,-1.42582 3.672232,-2.184991 1.432171,-0.758452 3.091031,-1.386264 4.966694,-1.889783 0.33615,-0.08889 0.740798,-0.17436 1.228076,-0.259177 0.487986,-0.08607 0.981615,-0.157543 1.475957,-0.215397 0.495044,-0.05725 0.992206,-0.100294 1.494311,-0.129919 0.502108,-0.02963 0.93925,-0.02181 1.312824,0.02823 l 0.333326,5.448328 c -0.596737,0.01001 -1.290224,0.03603 -2.087522,0.08407 -0.797298,0.04865 -1.639085,0.192775 -2.506296,0.425146 -0.391942,0.1053 -0.842494,0.269766 -1.369318,0.486564 -0.526823,0.216097 -0.924414,0.401127 -1.182176,0.560011 l 4.526026,16.876045 h -0.01114 l 0.0452,0.163949 c -0.981615,0.589677 -2.282431,1.23939 -3.892564,1.951939 -1.609426,0.711849 -3.333964,1.314942 -5.182084,1.810693 -1.874956,0.502817 -3.500625,0.686426 -4.877005,0.536709 -1.187828,-0.129318 -2.22382,-0.463263 -3.105862,-0.995028 -0.01201,-0.008 -0.02049,-0.01602 -0.03388,-0.02322 -0.370953,-0.194177 -0.8547,-0.522597 -1.464856,-1.069194 C 28.2693,63.186111 27.430337,62.467916 26.550412,61.75889 25.670491,61.049163 24.771501,60.381795 23.840024,59.761049 22.908548,59.141004 22.013797,58.641007 21.164238,58.268148 L 24.507962,70.7425 18.244689,72.422554 11.547125,47.422383 11.014649,45.584146 c -0.149717,-0.56001 -0.32697,-1.045874 -0.531769,-1.471 -0.204089,-0.425849 -0.46609,-0.762696 -0.7859972,-1.007058 -0.320613,-0.245044 -0.733036,-0.405353 -1.2337293,-0.480919 -0.499989,-0.07687 -1.135567,-0.03963 -1.906031,0.107303 L 6.0592515,37.329347 C 7.6580865,36.92752 9.0245798,36.723435 10.166504,36.71849 m 71.588741,-10.200339 6.697578,25.00085 0.532483,1.838236 c 0.149736,0.559309 0.326977,1.045173 0.532486,1.471021 0.204084,0.425127 0.465383,0.762695 0.785994,1.006336 0.319892,0.245045 0.733028,0.40535 1.233721,0.480919 0.499293,0.07687 1.134853,0.04023 1.906035,-0.106695 l 0.497156,5.402425 c -1.826223,0.459037 -3.350892,0.665245 -4.581811,0.604511 -1.231602,-0.05925 -2.265481,-0.338269 -3.100201,-0.819187 -0.834019,-0.481643 -1.490778,-1.15748 -1.980185,-2.031036 -0.490105,-0.874998 -0.889809,-1.902515 -1.205474,-3.078326 l -2.833982,-10.579586 -0.20903,-0.587555 c -0.435716,0.836842 -0.88981,1.704073 -1.35237,2.607998 -0.46326,0.903943 -0.898997,1.802222 -1.324128,2.681444 -0.424427,0.879222 -0.819882,1.705475 -1.193467,2.494995 -0.373576,0.79024 -0.697729,1.483732 -0.961851,2.064923 l -7.427805,1.991494 c 1.026093,-2.105899 2.040201,-4.127042 3.037345,-6.059203 0.997867,-1.932862 2.112984,-3.951883 3.349531,-6.053539 -1.042371,-0.531064 -2.154644,-1.198413 -3.332572,-2.008431 -1.176535,-0.809998 -2.338207,-1.663096 -3.479428,-2.557151 -0.259156,-0.204086 -0.509886,-0.410995 -0.763414,-0.616503 -0.162348,-0.09048 -0.288843,-0.170956 -0.350282,-0.225985 -0.754183,-0.687126 -2.301474,-0.995747 -3.756936,-0.605913 -0.44773,0.120109 -0.921601,0.269766 -1.414527,0.447028 -0.492209,0.176561 -0.923724,0.343914 -1.300845,0.50352 l 4.509085,16.836489 h -0.006 v 0.01201 c -1.014102,0.69137 -2.240039,1.424398 -3.672204,2.18427 -1.431481,0.758471 -3.091031,1.386285 -4.9667,1.889102 -0.336147,0.08967 -0.740793,0.17436 -1.227377,0.259878 -0.487264,0.08607 -0.982333,0.158145 -1.476664,0.215376 -0.495051,0.05725 -0.9922,0.100293 -1.494318,0.129919 -0.502106,0.03043 -0.938534,0.02181 -1.312821,-0.02762 l -0.332748,-5.448948 c 0.596032,-0.01001 1.289518,-0.03603 2.087528,-0.08407 0.796582,-0.04865 1.638368,-0.192175 2.505578,-0.424427 0.392638,-0.1053 0.842507,-0.270467 1.369326,-0.486564 0.52682,-0.216098 0.925122,-0.401826 1.182877,-0.560732 l -4.526669,-16.87533 h 0.01201 l -0.04584,-0.16455 c 0.982316,-0.588977 2.28312,-1.239371 3.892545,-1.95194 1.609424,-0.711849 3.33399,-1.314938 5.182815,-1.810691 1.874946,-0.502097 3.499923,-0.686425 4.8763,-0.536709 1.187816,0.129319 2.223821,0.463262 3.105846,0.995748 0.01201,0.006 0.02124,0.01602 0.03385,0.02262 0.371455,0.194979 0.855196,0.523277 1.465353,1.069176 0.810018,0.727383 1.648257,1.445598 2.528177,2.155325 0.880661,0.709724 1.778943,1.376371 2.71043,1.997118 0.931466,0.620045 1.826224,1.120741 2.675775,1.493621 L 75.491545,28.198797 Z"
         style="display:inline;mix-blend-mode:lighten;fill:#ffff00;fill-opacity:1;fill-rule:nonzero;stroke:none;stroke-width:0.706198;filter:url(#filter1379)"
         id="path939-6-7" />
    </g>
  </g>
</svg>
